# xmcd
#
# Track frame offsets: 
#        150
#        21210
#        42612
#        63980
#        85510
#        102802
#        119342
#        120577
#        134062
#
# Disc length: 2004 seconds
#
# Revision: 0
# Processed by: cddbd v1.5.2PL0 Copyright (c) Steve Scherf et al.
# Submitted via: ExactAudioCopy v0.99pb4
#
DISCID=7707d209
DTITLE=Spicline - Spicline
DYEAR=1997
DGENRE=R&B
TTITLE0=Stay A'little While
TTITLE1=Let's Talk
TTITLE2=Shooby-Do-U-Up
TTITLE3=Lay You Down
TTITLE4=My Love Will (Last Forever)
TTITLE5=Slow Dance (Remix)
TTITLE6=Bonus Track
TTITLE7=Bonus Track
TTITLE8=Bonus Track
EXTD=
EXTT0=
EXTT1=
EXTT2=
EXTT3=
EXTT4=
EXTT5=
EXTT6=
EXTT7=
EXTT8=
PLAYORDER=
